# Blender v2.81 (sub 16) OBJ File: 'stlheart.blend'
# www.blender.org
mtllib stlheart.mtl
o Heart
v 0.188100 0.429726 0.015345
v 1.015600 -1.154264 -0.041217
v 0.061600 0.296111 0.010574
v 0.378400 0.548450 0.019584
v 0.615600 0.599618 0.021412
v 0.937100 0.556645 0.019877
v 0.015600 0.199873 0.007137
v 1.162500 0.443517 0.015837
v 1.308200 0.283419 0.010121
v 1.390600 0.099936 0.003569
v 0.571900 -1.563404 -0.055827
v 1.015600 -1.189950 0.958146
v 0.571900 -1.599090 0.943536
v 1.309400 -0.767611 -0.027410
v 1.309400 -0.803297 0.971953
v 0.188100 0.394040 1.014708
v 1.431300 -0.279331 0.990663
v 0.378400 0.512764 1.018947
v 0.061600 0.260425 1.009937
v 0.015600 0.164187 1.006500
v 0.615600 0.563932 1.020775
v 1.308200 0.247733 1.009484
v 0.937100 0.520959 1.019240
v 1.390600 0.064250 1.002932
v 1.162500 0.407831 1.015200
v -0.030300 0.260425 1.009937
v -0.030300 0.296111 0.010574
v -0.156900 0.429726 0.015345
v -0.156900 0.394040 1.014708
v -1.277000 0.283419 0.010121
v -1.359400 0.099936 0.003569
v -1.359400 0.064250 1.002932
v -1.277000 0.247733 1.009484
v -0.540600 -1.563404 -0.055827
v -0.540600 -1.599090 0.943536
v -0.984400 -1.189950 0.958146
v -0.984400 -1.154264 -0.041217
v 1.388300 -0.581629 -0.020769
v 1.388300 -0.617315 0.978594
v -0.347200 0.548450 0.019584
v -0.347200 0.512764 1.018947
v 1.415600 -0.399745 -0.014274
v 1.415600 -0.435431 0.985089
v -1.400000 -0.243645 -0.008700
v -1.400000 -0.279331 0.990663
v -0.584400 0.599618 0.021412
v -0.584400 0.563932 1.020775
v 1.431300 -0.243645 -0.008700
v 0.015600 -2.034412 0.927991
v 0.015600 -1.998726 -0.071372
v -0.905900 0.556645 0.019877
v -0.905900 0.520959 1.019240
v -1.131300 0.443517 0.015837
v -1.131300 0.407831 1.015200
v -1.384400 -0.435431 0.985089
v -1.357000 -0.617315 0.978594
v -1.278100 -0.803297 0.971953
v -1.357000 -0.581629 -0.020769
v -1.384400 -0.399745 -0.014274
v -1.278100 -0.767611 -0.027410
vn 0.0000 0.0357 -0.9994
vn 0.6781 -0.7345 -0.0262
vn 0.7964 -0.6044 -0.0216
vn 0.0000 -0.0357 0.9994
vn 0.7261 0.6871 0.0245
vn -0.9123 0.4092 0.0146
vn -0.6780 -0.7346 -0.0262
vn 0.9207 -0.3901 -0.0139
vn 0.5296 0.8477 0.0303
vn 0.9889 -0.1482 -0.0053
vn -0.9931 0.1172 0.0042
vn 0.2110 0.9769 0.0349
vn 0.9950 -0.0999 -0.0036
vn -0.1326 0.9905 0.0354
vn 0.9931 0.1175 0.0042
vn 0.9027 0.4300 0.0154
vn 0.9123 0.4092 0.0146
vn -0.4488 0.8931 0.0319
vn 0.7398 0.6724 0.0240
vn -0.7398 0.6724 0.0240
vn 0.4488 0.8931 0.0319
vn 0.1326 0.9905 0.0354
vn -0.2110 0.9769 0.0349
vn -0.5296 0.8477 0.0303
vn -0.9950 -0.0993 -0.0035
vn -0.9951 -0.0993 -0.0035
vn -0.9889 -0.1488 -0.0053
vn -0.9207 -0.3901 -0.0139
vn -0.7264 0.6868 0.0245
vn -0.7965 -0.6042 -0.0216
vn -0.9023 0.4307 0.0154
vn -0.6166 -0.7868 -0.0281
vn 0.6165 -0.7868 -0.0281
usemtl Material.001
s off
f 1//1 2//1 3//1
f 4//1 2//1 1//1
f 5//1 2//1 4//1
f 6//1 2//1 5//1
f 3//1 2//1 7//1
f 8//1 2//1 6//1
f 9//1 2//1 8//1
f 10//1 2//1 9//1
f 11//2 2//2 12//2
f 11//2 12//2 13//2
f 2//3 14//3 15//3
f 2//3 15//3 12//3
f 16//4 17//4 18//4
f 19//4 17//4 16//4
f 20//4 17//4 19//4
f 18//4 17//4 21//4
f 22//4 23//4 24//4
f 25//4 23//4 22//4
f 21//4 17//4 23//4
f 26//5 27//5 28//5
f 26//5 28//5 29//5
f 30//6 31//6 32//6
f 30//6 32//6 33//6
f 34//7 35//7 36//7
f 34//7 36//7 37//7
f 14//8 38//8 39//8
f 14//8 39//8 15//8
f 28//9 40//9 41//9
f 28//9 41//9 29//9
f 38//10 42//10 43//10
f 38//10 43//10 39//10
f 31//11 44//11 45//11
f 31//11 45//11 32//11
f 40//12 46//12 47//12
f 40//12 47//12 41//12
f 42//13 48//13 17//13
f 42//13 17//13 43//13
f 24//4 23//4 17//4
f 35//4 13//4 20//4
f 49//4 13//4 35//4
f 13//4 12//4 20//4
f 12//4 15//4 20//4
f 15//4 39//4 20//4
f 43//4 20//4 39//4
f 17//4 20//4 43//4
f 42//1 2//1 48//1
f 38//1 14//1 42//1
f 14//1 2//1 42//1
f 11//1 7//1 2//1
f 50//1 34//1 11//1
f 46//14 51//14 52//14
f 46//14 52//14 47//14
f 24//15 17//15 48//15
f 24//15 48//15 10//15
f 7//16 27//16 26//16
f 10//17 9//17 22//17
f 10//17 22//17 24//17
f 51//18 53//18 54//18
f 51//18 54//18 52//18
f 9//19 8//19 25//19
f 9//19 25//19 22//19
f 53//20 30//20 33//20
f 53//20 33//20 54//20
f 8//21 6//21 23//21
f 8//21 23//21 25//21
f 6//22 5//22 21//22
f 6//22 21//22 23//22
f 54//4 33//4 52//4
f 33//4 32//4 52//4
f 32//4 45//4 52//4
f 47//4 52//4 45//4
f 55//4 20//4 45//4
f 56//4 20//4 55//4
f 57//4 20//4 56//4
f 36//4 20//4 57//4
f 35//4 20//4 36//4
f 20//4 26//4 45//4
f 26//4 29//4 45//4
f 29//4 41//4 45//4
f 47//4 45//4 41//4
f 5//23 4//23 18//23
f 5//23 18//23 21//23
f 58//1 59//1 60//1
f 37//1 60//1 59//1
f 59//1 44//1 37//1
f 44//1 31//1 37//1
f 31//1 30//1 37//1
f 30//1 53//1 37//1
f 53//1 51//1 37//1
f 51//1 46//1 37//1
f 46//1 40//1 37//1
f 40//1 28//1 37//1
f 28//1 27//1 37//1
f 27//1 7//1 37//1
f 11//1 34//1 7//1
f 34//1 37//1 7//1
f 48//1 2//1 10//1
f 4//24 1//24 16//24
f 4//24 16//24 18//24
f 45//25 44//25 59//25
f 45//26 59//26 55//26
f 59//27 58//27 56//27
f 59//27 56//27 55//27
f 58//28 60//28 57//28
f 58//28 57//28 56//28
f 1//29 3//29 19//29
f 1//29 19//29 16//29
f 60//30 37//30 36//30
f 60//30 36//30 57//30
f 26//16 20//16 7//16
f 3//31 7//31 20//31
f 3//31 20//31 19//31
f 34//32 50//32 49//32
f 34//32 49//32 35//32
f 49//33 50//33 11//33
f 49//33 11//33 13//33
